<svg width="1840" height="1380" viewBox="0 0 1840 1380" fill="none" xmlns="http://www.w3.org/2000/svg">
<path d="M881.155 448.259L895.936 428.179L889.018 420.567C889.018 420.567 902.18 400.256 909.329 393.781C916.478 387.325 930.334 383.394 944.42 369.539C958.507 355.683 972.825 339.284 973.981 334.216C975.137 329.148 974.444 329.822 974.906 326.835C975.369 323.829 975.137 319.224 973.75 317.605C972.363 315.986 972.594 315.524 972.131 313.442C971.669 311.361 972.363 306.524 968.663 305.599C964.963 304.674 957.582 306.293 957.582 306.293C957.582 306.293 958.507 303.287 950.433 304.674C942.358 306.062 905.879 331.692 905.879 331.692C905.879 331.692 908.192 323.386 905.417 319.455C902.642 315.524 899.405 311.612 897.574 314.599C895.724 317.605 893.18 330.998 891.561 336.297C889.943 341.616 887.168 354.315 885.106 361.927C883.044 369.539 878.65 380.851 875.413 385.475C872.175 390.1 867.338 395.169 867.338 395.169C867.338 395.169 865.026 393.781 864.332 395.169C863.639 396.556 850.246 411.336 850.246 411.336L881.155 448.259Z" fill="white"/>
<path d="M662.589 473.135L662.82 493.157C662.82 493.157 739.593 490.941 743.37 488.937C747.147 486.933 746.704 483.811 746.935 482.481C747.167 481.152 747.167 462.016 747.167 462.016L754.065 455.117L737.821 439.104C737.821 439.104 740.268 427.541 738.938 423.976C737.609 420.411 722.481 399.715 722.481 399.715C722.481 399.715 676.425 411.065 672.185 421.972C667.927 432.86 662.589 473.135 662.589 473.135Z" fill="white"/>
<path d="M550.94 1134.91C561.221 1134.91 569.555 1126.57 569.555 1116.29C569.555 1106.01 561.221 1097.68 550.94 1097.68C540.659 1097.68 532.325 1106.01 532.325 1116.29C532.325 1126.57 540.659 1134.91 550.94 1134.91Z" fill="white" stroke="#031F43" stroke-width="3.85409" stroke-miterlimit="10" stroke-linecap="round" stroke-linejoin="round"/>
<path d="M559.495 1134.91C569.776 1134.91 578.111 1126.57 578.111 1116.29C578.111 1106.01 569.776 1097.68 559.495 1097.68C549.214 1097.68 540.88 1106.01 540.88 1116.29C540.88 1126.57 549.214 1134.91 559.495 1134.91Z" fill="white" stroke="#031F43" stroke-width="3.85409" stroke-miterlimit="10" stroke-linecap="round" stroke-linejoin="round"/>
<path d="M840.133 1161.09C850.414 1161.09 858.748 1152.76 858.748 1142.48C858.748 1132.2 850.414 1123.86 840.133 1123.86C829.852 1123.86 821.518 1132.2 821.518 1142.48C821.518 1152.76 829.852 1161.09 840.133 1161.09Z" fill="white" stroke="#031F43" stroke-width="3.85409" stroke-miterlimit="10" stroke-linecap="round" stroke-linejoin="round"/>
<path d="M848.688 1161.09C858.969 1161.09 867.304 1152.76 867.304 1142.48C867.304 1132.2 858.969 1123.86 848.688 1123.86C838.407 1123.86 830.073 1132.2 830.073 1142.48C830.073 1152.76 838.407 1161.09 848.688 1161.09Z" fill="white" stroke="#031F43" stroke-width="3.85409" stroke-miterlimit="10" stroke-linecap="round" stroke-linejoin="round"/>
<path d="M1134.99 1119.43L1138.96 1198.92H893.55L909.448 1142.29L916.598 1119.43H1134.99Z" fill="white" stroke="#031F43" stroke-width="3.85409" stroke-miterlimit="10" stroke-linecap="round" stroke-linejoin="round"/>
<path d="M1067.43 769.691H985.952V1159.17H1067.43V769.691Z" fill="white" stroke="#031F43" stroke-width="3.85409" stroke-miterlimit="10" stroke-linecap="round" stroke-linejoin="round"/>
<path d="M912.513 1128.87H859.346L863.875 1075.51L912.513 1077.42V1128.87Z" fill="white" stroke="#031F43" stroke-width="3.85409" stroke-miterlimit="10" stroke-linecap="round" stroke-linejoin="round"/>
<path d="M682.346 922.814H658.681V1025.58H682.346V922.814Z" fill="white" stroke="#031F43" stroke-width="3.85409" stroke-miterlimit="10" stroke-linecap="round" stroke-linejoin="round"/>
<path d="M687.163 1021.27H652.611V1033.37L484.554 1122.36V1140.94H496.636V1130.57L659.953 1071.39L681.556 1159.09H690.189L685.872 1068.37L838.379 1115.89V1124.52H854.373V1108.55L687.163 1031.64V1021.27Z" fill="white" stroke="#031F43" stroke-width="3.85409" stroke-miterlimit="10" stroke-linecap="round" stroke-linejoin="round"/>
<path d="M680.07 1191.87C690.351 1191.87 698.685 1183.54 698.685 1173.26C698.685 1162.97 690.351 1154.64 680.07 1154.64C669.789 1154.64 661.455 1162.97 661.455 1173.26C661.455 1183.54 669.789 1191.87 680.07 1191.87Z" fill="white" stroke="#031F43" stroke-width="3.85409" stroke-miterlimit="10" stroke-linecap="round" stroke-linejoin="round"/>
<path d="M688.629 1191.87C698.91 1191.87 707.244 1183.54 707.244 1173.26C707.244 1162.97 698.91 1154.64 688.629 1154.64C678.348 1154.64 670.014 1162.97 670.014 1173.26C670.014 1183.54 678.348 1191.87 688.629 1191.87Z" fill="white" stroke="#031F43" stroke-width="3.85409" stroke-miterlimit="10" stroke-linecap="round" stroke-linejoin="round"/>
<path d="M749.987 1134.91C760.268 1134.91 768.602 1126.57 768.602 1116.29C768.602 1106.01 760.268 1097.68 749.987 1097.68C739.706 1097.68 731.371 1106.01 731.371 1116.29C731.371 1126.57 739.706 1134.91 749.987 1134.91Z" fill="white" stroke="#031F43" stroke-width="3.85409" stroke-miterlimit="10" stroke-linecap="round" stroke-linejoin="round"/>
<path d="M758.54 1134.91C768.821 1134.91 777.155 1126.57 777.155 1116.29C777.155 1106.01 768.821 1097.68 758.54 1097.68C748.259 1097.68 739.925 1106.01 739.925 1116.29C739.925 1126.57 748.259 1134.91 758.54 1134.91Z" fill="white" stroke="#031F43" stroke-width="3.85409" stroke-miterlimit="10" stroke-linecap="round" stroke-linejoin="round"/>
<path d="M816.872 935.264H611.333C589.654 935.264 572.099 917.69 572.099 896.03C572.099 874.35 589.673 856.795 611.333 856.795H816.872C838.551 856.795 856.107 874.37 856.107 896.03C856.107 917.69 838.551 935.264 816.872 935.264Z" fill="#45D62F" stroke="#031F43" stroke-width="3.85409" stroke-linecap="round" stroke-linejoin="round"/>
<path d="M485.074 1172.33C495.354 1172.33 503.689 1163.99 503.689 1153.71C503.689 1143.43 495.354 1135.1 485.074 1135.1C474.793 1135.1 466.458 1143.43 466.458 1153.71C466.458 1163.99 474.793 1172.33 485.074 1172.33Z" fill="white" stroke="#031F43" stroke-width="3.85409" stroke-miterlimit="10" stroke-linecap="round" stroke-linejoin="round"/>
<path d="M493.61 1172.33C503.891 1172.33 512.225 1163.99 512.225 1153.71C512.225 1143.43 503.891 1135.1 493.61 1135.1C483.329 1135.1 474.995 1143.43 474.995 1153.71C474.995 1163.99 483.329 1172.33 493.61 1172.33Z" fill="white" stroke="#031F43" stroke-width="3.85409" stroke-miterlimit="10" stroke-linecap="round" stroke-linejoin="round"/>
<path d="M770.373 778.538C770.373 778.538 904.456 801.296 935.424 815.807C966.411 830.337 957.681 859.859 957.681 909.712C957.681 959.565 952.363 1078.64 952.363 1078.64C952.363 1078.64 928.159 1090.26 907.347 1091.22C886.535 1092.18 851.675 1085.9 851.675 1085.9C851.675 1085.9 858.94 980.858 860.867 954.728C862.794 928.597 867.65 894.7 866.185 891.81C864.74 888.9 653.478 897.861 631.163 881.365C601.852 859.724 603.837 827.427 617.885 782.893C631.934 738.359 770.373 778.538 770.373 778.538Z" fill="#031F43"/>
<path d="M1015.03 329.611L1010.02 445.408L1176.48 467.125L1201.53 336.857C1201.53 336.857 1172.59 342.426 1110.79 337.975C1054.15 333.87 1015.03 329.611 1015.03 329.611Z" fill="white" stroke="#031F43" stroke-width="3.85409" stroke-miterlimit="10" stroke-linecap="round" stroke-linejoin="round"/>
<path d="M959.918 370.256C959.359 370.815 1031.18 427.046 1031.18 427.046C1031.18 427.046 1027.85 485.512 1017.83 525.036C1007.8 564.56 1010.58 581.826 1010.58 581.826L935.984 485.512C935.984 485.512 947.681 464.912 950.456 440.42C953.231 415.927 959.918 370.256 959.918 370.256Z" fill="#A7CCE9"/>
<path d="M1184.44 200.809C1184.44 200.809 1193.36 223.548 1212.98 237.365C1224.06 245.17 1258.96 256.404 1291 264.035C1315.71 269.913 1340.45 273.343 1340.45 273.343C1340.45 273.343 1311.91 241.238 1303.89 226.535C1295.88 211.832 1288.29 191.309 1288.29 191.309C1288.29 191.309 1185.36 203.179 1184.44 200.809Z" fill="#A7CCE9"/>
<path d="M1201.18 227.15C1201.18 227.15 1220.93 238.231 1236.6 235.34C1252.27 232.45 1256.35 229.077 1256.35 229.077C1256.35 229.077 1270.8 257.983 1287.44 263.051C1304.07 268.119 1249.67 257.501 1229.41 248.348C1214.05 241.391 1201.18 227.15 1201.18 227.15Z" fill="#347CE1"/>
<path d="M1164.01 364.338L1283.56 371.718C1283.56 371.718 1271.44 451.768 1244.58 481.791C1217.72 511.815 1175.59 519.716 1175.59 519.716L1101.32 506.014L1164.01 364.338Z" fill="white" stroke="#031F43" stroke-width="3.85409" stroke-miterlimit="10" stroke-linecap="round" stroke-linejoin="round"/>
<path d="M1175.59 519.716L1191.4 489.173L1238.8 487.072" fill="white"/>
<path d="M1175.59 519.716L1191.4 489.173L1238.8 487.072" stroke="#031F43" stroke-width="3.85409" stroke-miterlimit="10" stroke-linecap="round" stroke-linejoin="round"/>
<path d="M1299.25 799.369H785.31V814.786H1299.25V799.369Z" fill="white" stroke="#031F43" stroke-width="3.85409" stroke-miterlimit="10" stroke-linecap="round" stroke-linejoin="round"/>
<path d="M1299.27 799.368L1248.51 702.997C1248.51 702.997 839.922 700.434 839.922 702.997C839.922 705.559 785.31 799.368 785.31 799.368H1299.27Z" fill="white" stroke="#031F43" stroke-width="3.85409" stroke-miterlimit="10" stroke-linecap="round" stroke-linejoin="round"/>
<path d="M662.325 475.027L662.633 484.239" stroke="#031F43" stroke-width="3.85409" stroke-linecap="round" stroke-linejoin="round"/>
<path d="M1135.49 649.733C1135.49 649.733 1142.06 676.962 1162.72 696.194C1183.38 715.445 1200.28 726.237 1200.28 726.237C1200.28 726.237 1111.56 723.886 1085.75 725.293C1059.93 726.699 1042.57 705.579 1024.72 688.679C1006.88 671.778 988.111 654.878 987.648 655.36C987.186 655.822 1054.77 656.767 1084.35 653.009C1113.91 649.271 1135.49 649.733 1135.49 649.733Z" fill="white" stroke="#031F43" stroke-width="3.85409" stroke-miterlimit="10" stroke-linecap="round" stroke-linejoin="round"/>
<path d="M1137.44 761.002C1137.44 761.002 1161.6 710.861 1160.27 711.766C1158.92 712.653 1191.6 718.473 1215.33 709.531C1239.05 700.57 1266.35 678.197 1266.35 678.197C1266.35 678.197 1284.26 686.696 1300.83 706.852C1317.4 727.009 1324.99 746.684 1324.99 746.684C1324.99 746.684 1290.08 767.285 1229.64 769.52C1169.21 771.736 1137.44 761.002 1137.44 761.002Z" fill="white" stroke="#031F43" stroke-width="3.85409" stroke-miterlimit="10" stroke-linecap="round" stroke-linejoin="round"/>
<path d="M724.202 401.818C724.202 401.818 737.865 419.316 738.713 425.29C739.56 431.264 738.289 439.376 738.289 439.376L753.647 455.602L746.825 462.424C746.825 462.424 749.388 470.961 747.673 479.498C745.958 488.034 742.952 488.747 742.952 488.747" stroke="#031F43" stroke-width="3.85409" stroke-linecap="round" stroke-linejoin="round"/>
<path d="M728.439 428.182C732.948 426.158 738.729 425.291 738.729 425.291" stroke="#031F43" stroke-width="3.85409" stroke-linecap="round" stroke-linejoin="round"/>
<path d="M747.364 474.238C747.364 474.238 742.18 475.818 736.669 475.24" stroke="#031F43" stroke-width="3.85409" stroke-linecap="round" stroke-linejoin="round"/>
<path d="M731.466 439.551C731.177 439.84 732.179 443.405 734.877 443.54C737.575 443.675 738.288 439.378 738.288 439.378C732.469 435.716 727.131 443.521 727.131 443.521" stroke="#031F43" stroke-width="3.85409" stroke-linecap="round" stroke-linejoin="round"/>
<path d="M688.069 449.341C688.069 449.341 696.298 443.29 692.636 436.661C688.705 429.57 690.574 422.421 692.482 420.05C697.608 413.691 723.488 420.474 729.847 404.345C735.918 388.967 722.313 367.77 722.313 367.77C722.313 367.77 713.487 381.548 688.801 380.372C674.676 379.717 644.364 388.215 635.711 411.09C628.658 429.724 630.547 444.1 638.293 453.562C646.04 463.023 653.787 472.215 655.232 474.798C656.658 477.38 662.979 478.825 667.006 476.513C671.034 474.22 677.836 468.978 676.7 466.107C675.543 463.235 670.302 456.915 671.535 452.54C673.558 445.429 688.069 449.341 688.069 449.341Z" fill="#031F43"/>
<path d="M869.419 393.127C869.419 393.127 881.29 379.079 883.468 368.653C885.645 358.228 888.516 345.972 891.388 338.418C894.259 330.864 895.704 316.103 898.229 314.291C900.753 312.499 905.07 317.163 905.783 320.766C906.496 324.37 904.704 333.003 904.704 333.003C904.704 333.003 943.765 305.562 949.527 304.675C955.269 303.789 958.141 307.335 958.141 307.335C958.141 307.335 965.444 304.463 969.626 306.892C973.827 309.32 970.724 315.505 970.724 315.505C970.724 315.505 974.482 317.49 975.137 321.248C975.792 325.006 973.364 327.434 973.364 327.434C973.364 327.434 974.694 332.733 974.019 336.048C973.345 339.362 947.715 368.769 935.344 376.94C922.972 385.11 913.452 389.099 908.827 394.399C904.183 399.698 890.925 417.157 890.925 417.157" stroke="#031F43" stroke-width="3.85409" stroke-linecap="round" stroke-linejoin="round"/>
<path d="M958.123 307.336L927.406 332.542" stroke="#031F43" stroke-width="3.85409" stroke-linecap="round" stroke-linejoin="round"/>
<path d="M970.513 315.295L939.777 340.501" stroke="#031F43" stroke-width="3.85409" stroke-linecap="round" stroke-linejoin="round"/>
<path d="M973.829 327.012L943.093 352.217" stroke="#031F43" stroke-width="3.85409" stroke-linecap="round" stroke-linejoin="round"/>
<path d="M852.019 407.91C852.019 407.91 789.853 460.056 780.102 468.574C773.936 473.95 728.554 489.366 727.07 489.366C725.586 489.366 706.585 478.613 694.715 477.13C682.844 475.646 648.389 491.178 642.819 495.263C637.25 499.348 624.127 508.502 618.982 522.415C615.32 532.32 603.758 585.892 604.876 605.953C605.993 625.994 600.733 818.352 600.733 818.352C600.733 818.352 642.954 821.242 661.589 821.782C680.223 822.321 746.533 825.077 759.136 819.045C771.739 813.014 788.176 772.469 788.176 772.469C788.176 772.469 795.846 672.725 793.649 655.728C791.452 638.732 782.684 602.021 782.145 593.793C781.605 585.565 770.64 547.756 770.64 547.756C770.64 547.756 803.111 526.674 816.176 516.653C829.242 506.633 849.187 490.985 859.94 481.408C872.87 469.903 892.275 451.577 892.275 451.577L852.309 407.91H852.019Z" fill="#347CE1" stroke="#231F20" stroke-width="3.85409" stroke-miterlimit="10" stroke-linecap="round" stroke-linejoin="round"/>
<path d="M852.332 407.909L865.995 393.938L896.461 428.856L884.918 441.921" stroke="#031F43" stroke-width="3.85409" stroke-linecap="round" stroke-linejoin="round"/>
<path d="M770.641 547.734C770.641 547.734 734.22 566.851 712.367 575.349C690.534 583.847 679.607 584.252 679.607 584.252" stroke="#031F43" stroke-width="3.85409" stroke-linecap="round" stroke-linejoin="round"/>
<path d="M874.662 696.773C874.662 696.773 931.857 697.139 942.745 696.773C953.633 696.407 963.596 704.886 969.492 709.511C975.389 714.117 983.328 721.324 983.328 721.324C983.328 721.324 979.455 722.981 975.216 722.981C970.976 722.981 956.388 716.699 953.633 715.408C950.858 714.117 955.483 718.915 953.825 721.497C952.168 724.079 944.421 724.446 937.58 723.887C930.759 723.328 912.664 722.788 904.744 722.962C896.804 723.154 889.423 720.187 884.259 719.455C879.095 718.722 875.587 720.187 875.221 719.647C874.836 719.108 874.662 696.773 874.662 696.773Z" fill="white" stroke="#031F43" stroke-width="3.85409" stroke-miterlimit="10" stroke-linecap="round" stroke-linejoin="round"/>
<path d="M953.635 715.405C953.635 715.405 949.761 712.823 939.066 712.091C928.371 711.359 924.305 710.434 924.305 710.434" fill="white"/>
<path d="M953.635 715.405C953.635 715.405 949.761 712.823 939.066 712.091C928.371 711.359 924.305 710.434 924.305 710.434" stroke="#031F43" stroke-width="3.85409" stroke-miterlimit="10" stroke-linecap="round" stroke-linejoin="round"/>
<path d="M793.111 678.35C793.111 680.026 878.556 690.953 878.556 690.953L880.232 729.86L790.413 735.795L793.111 678.35Z" fill="#347CE1" stroke="#231F20" stroke-width="3.85409" stroke-miterlimit="10" stroke-linecap="round" stroke-linejoin="round"/>
<path d="M696.645 911.33C689.765 911.33 684.196 905.761 684.196 898.881V808.464C684.196 801.585 689.765 796.016 696.645 796.016C703.524 796.016 709.093 801.585 709.093 808.464V898.881C709.093 905.761 703.505 911.33 696.645 911.33Z" fill="#45D62F" stroke="#031F43" stroke-width="3.85409" stroke-linecap="round" stroke-linejoin="round"/>
<path d="M755.227 804.398H643.901C638.563 804.398 634.228 800.062 634.228 794.725C634.228 789.387 638.563 785.051 643.901 785.051H755.227C760.565 785.051 764.901 789.387 764.901 794.725C764.901 800.082 760.565 804.398 755.227 804.398Z" fill="#45D62F" stroke="#031F43" stroke-width="3.85409" stroke-linecap="round" stroke-linejoin="round"/>
<path d="M859.75 1113.36C859.75 1113.36 850.751 1125.35 850.327 1139.92C849.903 1154.48 850.751 1165.18 850.751 1165.18L891.007 1167.32L894.013 1162.17C894.013 1162.17 909.43 1164.74 923.998 1166.45C938.567 1168.17 973.677 1166.45 990.385 1161.31C1007.09 1156.16 1017.81 1152.73 1019.08 1148.03C1020.37 1143.31 1016.94 1133.04 1016.94 1133.04C1016.94 1133.04 987.822 1133.46 972.829 1131.75C957.837 1130.03 929.143 1109.89 925.713 1106.91C922.283 1103.92 915.442 1097.48 911.588 1101.34C907.734 1105.19 897.887 1111.18 897.887 1115.04C897.887 1118.89 894.033 1119.32 886.748 1120.18C879.445 1121.07 859.75 1113.36 859.75 1113.36Z" fill="#E72A8B"/>
<path d="M916.967 1122.67C916.967 1122.67 925.234 1113.17 928.741 1111.59" stroke="#031F43" stroke-width="3.85409" stroke-linecap="round" stroke-linejoin="round"/>
<path d="M927.851 1129.53C927.851 1129.53 936.118 1120.03 939.625 1118.45" stroke="#031F43" stroke-width="3.85409" stroke-linecap="round" stroke-linejoin="round"/>
<path d="M938.586 1134.81C938.586 1134.81 946.853 1125.31 950.36 1123.73" stroke="#031F43" stroke-width="3.85409" stroke-linecap="round" stroke-linejoin="round"/>
<path d="M593.99 875.158C582.196 875.158 572.619 865.6 572.619 853.787V559.971C572.619 548.177 582.177 538.6 593.99 538.6C605.783 538.6 615.361 548.158 615.361 559.971V853.787C615.361 865.581 605.783 875.158 593.99 875.158Z" fill="#45D62F" stroke="#031F43" stroke-width="3.85409" stroke-linecap="round" stroke-linejoin="round"/>
</svg>
